<mxfile host="app.diagrams.net" agent="Mozilla/5.0 (Windows NT 10.0; Win64; x64) AppleWebKit/537.36 (KHTML, like Gecko) Chrome/127.0.0.0 Safari/537.36" version="24.7.7">
  <diagram name="Page-1" id="I7pWjkquTIe3RNS9W7hb">
    <mxGraphModel dx="1598" dy="887" grid="1" gridSize="10" guides="1" tooltips="1" connect="1" arrows="1" fold="1" page="1" pageScale="1" pageWidth="827" pageHeight="1169" math="0" shadow="0">
      <root>
        <mxCell id="0" />
        <mxCell id="1" parent="0" />
        <mxCell id="RSVV_WOLys6-mcO1n644-40" value="Exam ItemService" style="swimlane;whiteSpace=wrap;html=1;" parent="1" vertex="1">
          <mxGeometry x="60" y="885" width="190" height="210" as="geometry" />
        </mxCell>
        <mxCell id="RSVV_WOLys6-mcO1n644-41" value="" style="html=1;verticalLabelPosition=bottom;align=center;labelBackgroundColor=#ffffff;verticalAlign=top;strokeWidth=2;strokeColor=#0080F0;shadow=0;dashed=0;shape=mxgraph.ios7.icons.data;" parent="RSVV_WOLys6-mcO1n644-40" vertex="1">
          <mxGeometry x="120" y="95" width="70" height="69.1" as="geometry" />
        </mxCell>
        <mxCell id="8-iE3QzW0I2eiYtSppjK-78" value="" style="shape=image;html=1;verticalAlign=top;verticalLabelPosition=bottom;labelBackgroundColor=#ffffff;imageAspect=0;aspect=fixed;image=https://cdn2.iconfinder.com/data/icons/office-icon-set-3/128/users.png" parent="RSVV_WOLys6-mcO1n644-40" vertex="1">
          <mxGeometry x="30" y="39.99999999999996" width="50" height="50" as="geometry" />
        </mxCell>
        <mxCell id="RIugXOhGWjYm2-fqEb5S-49" value="Items" style="whiteSpace=wrap;html=1;fillColor=#dae8fc;strokeColor=#6c8ebf;" vertex="1" parent="RSVV_WOLys6-mcO1n644-40">
          <mxGeometry x="12" y="109.54999999999995" width="86" height="40" as="geometry" />
        </mxCell>
        <mxCell id="RIugXOhGWjYm2-fqEb5S-1" value="Authentication Service" style="swimlane;whiteSpace=wrap;html=1;" vertex="1" parent="1">
          <mxGeometry x="517.5" y="760" width="385" height="320" as="geometry" />
        </mxCell>
        <mxCell id="RIugXOhGWjYm2-fqEb5S-2" value="" style="html=1;verticalLabelPosition=bottom;align=center;labelBackgroundColor=#ffffff;verticalAlign=top;strokeWidth=2;strokeColor=#0080F0;shadow=0;dashed=0;shape=mxgraph.ios7.icons.data;" vertex="1" parent="RIugXOhGWjYm2-fqEb5S-1">
          <mxGeometry x="310" y="195" width="75" height="80" as="geometry" />
        </mxCell>
        <mxCell id="8-iE3QzW0I2eiYtSppjK-87" value="" style="shape=image;html=1;verticalAlign=top;verticalLabelPosition=bottom;labelBackgroundColor=#ffffff;imageAspect=0;aspect=fixed;image=https://cdn2.iconfinder.com/data/icons/office-icon-set-3/128/users.png" parent="RIugXOhGWjYm2-fqEb5S-1" vertex="1">
          <mxGeometry x="330" y="25" width="50" height="50" as="geometry" />
        </mxCell>
        <mxCell id="8-iE3QzW0I2eiYtSppjK-88" value="" style="shape=image;html=1;verticalAlign=top;verticalLabelPosition=bottom;labelBackgroundColor=#ffffff;imageAspect=0;aspect=fixed;image=https://cdn2.iconfinder.com/data/icons/office-icon-set-3/128/users.png" parent="RIugXOhGWjYm2-fqEb5S-1" vertex="1">
          <mxGeometry x="330" y="90" width="50" height="50" as="geometry" />
        </mxCell>
        <mxCell id="RIugXOhGWjYm2-fqEb5S-10" value="Roles" style="swimlane;fontStyle=0;childLayout=stackLayout;horizontal=1;startSize=30;horizontalStack=0;resizeParent=1;resizeParentMax=0;resizeLast=0;collapsible=1;marginBottom=0;whiteSpace=wrap;html=1;" vertex="1" parent="RIugXOhGWjYm2-fqEb5S-1">
          <mxGeometry x="30" y="45" width="140" height="230" as="geometry" />
        </mxCell>
        <mxCell id="8-iE3QzW0I2eiYtSppjK-36" value="Learner" style="whiteSpace=wrap;html=1;fillColor=#dae8fc;strokeColor=#6c8ebf;" parent="RIugXOhGWjYm2-fqEb5S-10" vertex="1">
          <mxGeometry y="30" width="140" height="40" as="geometry" />
        </mxCell>
        <mxCell id="8-iE3QzW0I2eiYtSppjK-46" value="Teacher" style="whiteSpace=wrap;html=1;fillColor=#dae8fc;strokeColor=#6c8ebf;" parent="RIugXOhGWjYm2-fqEb5S-10" vertex="1">
          <mxGeometry y="70" width="140" height="40" as="geometry" />
        </mxCell>
        <mxCell id="8-iE3QzW0I2eiYtSppjK-54" value="Marker" style="whiteSpace=wrap;html=1;fillColor=#dae8fc;strokeColor=#6c8ebf;" parent="RIugXOhGWjYm2-fqEb5S-10" vertex="1">
          <mxGeometry y="110" width="140" height="40" as="geometry" />
        </mxCell>
        <mxCell id="8-iE3QzW0I2eiYtSppjK-39" value="Designer" style="whiteSpace=wrap;html=1;fillColor=#dae8fc;strokeColor=#6c8ebf;" parent="RIugXOhGWjYm2-fqEb5S-10" vertex="1">
          <mxGeometry y="150" width="140" height="40" as="geometry" />
        </mxCell>
        <mxCell id="8-iE3QzW0I2eiYtSppjK-42" value="Admin" style="whiteSpace=wrap;html=1;fillColor=#dae8fc;strokeColor=#6c8ebf;" parent="RIugXOhGWjYm2-fqEb5S-10" vertex="1">
          <mxGeometry y="190" width="140" height="40" as="geometry" />
        </mxCell>
        <mxCell id="RIugXOhGWjYm2-fqEb5S-15" value="JWT" style="whiteSpace=wrap;html=1;fillColor=#dae8fc;strokeColor=#6c8ebf;" vertex="1" parent="RIugXOhGWjYm2-fqEb5S-1">
          <mxGeometry x="210" y="75" width="80" height="40" as="geometry" />
        </mxCell>
        <mxCell id="RIugXOhGWjYm2-fqEb5S-20" value="Front-End Service" style="swimlane;whiteSpace=wrap;html=1;" vertex="1" parent="1">
          <mxGeometry x="560" y="550" width="200" height="150" as="geometry" />
        </mxCell>
        <mxCell id="8-iE3QzW0I2eiYtSppjK-89" value="" style="shape=image;html=1;verticalAlign=top;verticalLabelPosition=bottom;labelBackgroundColor=#ffffff;imageAspect=0;aspect=fixed;image=https://cdn2.iconfinder.com/data/icons/office-icon-set-3/128/users.png" parent="RIugXOhGWjYm2-fqEb5S-20" vertex="1">
          <mxGeometry x="40" y="50" width="50" height="50" as="geometry" />
        </mxCell>
        <mxCell id="RIugXOhGWjYm2-fqEb5S-21" value="" style="shape=image;html=1;verticalAlign=top;verticalLabelPosition=bottom;labelBackgroundColor=#ffffff;imageAspect=0;aspect=fixed;image=https://cdn2.iconfinder.com/data/icons/office-icon-set-3/128/users.png" vertex="1" parent="RIugXOhGWjYm2-fqEb5S-20">
          <mxGeometry x="100" y="50" width="50" height="50" as="geometry" />
        </mxCell>
        <mxCell id="RIugXOhGWjYm2-fqEb5S-22" value="Marking Service" style="swimlane;whiteSpace=wrap;html=1;" vertex="1" parent="1">
          <mxGeometry x="280" y="610" width="200" height="200" as="geometry" />
        </mxCell>
        <mxCell id="RIugXOhGWjYm2-fqEb5S-23" value="" style="shape=image;html=1;verticalAlign=top;verticalLabelPosition=bottom;labelBackgroundColor=#ffffff;imageAspect=0;aspect=fixed;image=https://cdn2.iconfinder.com/data/icons/office-icon-set-3/128/users.png" vertex="1" parent="RIugXOhGWjYm2-fqEb5S-22">
          <mxGeometry x="40" y="70" width="50" height="50" as="geometry" />
        </mxCell>
        <mxCell id="RIugXOhGWjYm2-fqEb5S-29" value="Learner Scroing" style="whiteSpace=wrap;html=1;fillColor=#dae8fc;strokeColor=#6c8ebf;" vertex="1" parent="RIugXOhGWjYm2-fqEb5S-22">
          <mxGeometry x="90" y="130" width="86" height="40" as="geometry" />
        </mxCell>
        <mxCell id="RIugXOhGWjYm2-fqEb5S-41" value="" style="html=1;verticalLabelPosition=bottom;align=center;labelBackgroundColor=#ffffff;verticalAlign=top;strokeWidth=2;strokeColor=#0080F0;shadow=0;dashed=0;shape=mxgraph.ios7.icons.data;" vertex="1" parent="RIugXOhGWjYm2-fqEb5S-22">
          <mxGeometry y="120" width="75" height="80" as="geometry" />
        </mxCell>
        <mxCell id="RIugXOhGWjYm2-fqEb5S-35" value="Translation Service" style="swimlane;whiteSpace=wrap;html=1;" vertex="1" parent="1">
          <mxGeometry x="60" y="610" width="200" height="270" as="geometry" />
        </mxCell>
        <mxCell id="RIugXOhGWjYm2-fqEb5S-36" value="" style="shape=image;html=1;verticalAlign=top;verticalLabelPosition=bottom;labelBackgroundColor=#ffffff;imageAspect=0;aspect=fixed;image=https://cdn2.iconfinder.com/data/icons/office-icon-set-3/128/users.png" vertex="1" parent="RIugXOhGWjYm2-fqEb5S-35">
          <mxGeometry x="40" y="50" width="50" height="50" as="geometry" />
        </mxCell>
        <mxCell id="RIugXOhGWjYm2-fqEb5S-37" value="" style="shape=image;html=1;verticalAlign=top;verticalLabelPosition=bottom;labelBackgroundColor=#ffffff;imageAspect=0;aspect=fixed;image=https://cdn2.iconfinder.com/data/icons/office-icon-set-3/128/users.png" vertex="1" parent="RIugXOhGWjYm2-fqEb5S-35">
          <mxGeometry x="100" y="50" width="50" height="50" as="geometry" />
        </mxCell>
        <mxCell id="RIugXOhGWjYm2-fqEb5S-42" value="" style="html=1;verticalLabelPosition=bottom;align=center;labelBackgroundColor=#ffffff;verticalAlign=top;strokeWidth=2;strokeColor=#0080F0;shadow=0;dashed=0;shape=mxgraph.ios7.icons.data;" vertex="1" parent="RIugXOhGWjYm2-fqEb5S-35">
          <mxGeometry x="120" y="120" width="75" height="80" as="geometry" />
        </mxCell>
        <mxCell id="RIugXOhGWjYm2-fqEb5S-51" value="Traslation" style="swimlane;fontStyle=0;childLayout=stackLayout;horizontal=1;startSize=30;horizontalStack=0;resizeParent=1;resizeParentMax=0;resizeLast=0;collapsible=1;marginBottom=0;whiteSpace=wrap;html=1;" vertex="1" parent="RIugXOhGWjYm2-fqEb5S-35">
          <mxGeometry x="10" y="140" width="70" height="110" as="geometry" />
        </mxCell>
        <mxCell id="RIugXOhGWjYm2-fqEb5S-50" value="Original Text" style="whiteSpace=wrap;html=1;fillColor=#dae8fc;strokeColor=#6c8ebf;" vertex="1" parent="RIugXOhGWjYm2-fqEb5S-51">
          <mxGeometry y="30" width="70" height="40" as="geometry" />
        </mxCell>
        <mxCell id="RIugXOhGWjYm2-fqEb5S-61" value="Translated Text" style="whiteSpace=wrap;html=1;fillColor=#dae8fc;strokeColor=#6c8ebf;" vertex="1" parent="RIugXOhGWjYm2-fqEb5S-51">
          <mxGeometry y="70" width="70" height="40" as="geometry" />
        </mxCell>
        <mxCell id="RIugXOhGWjYm2-fqEb5S-44" value="Testlet Service" style="swimlane;whiteSpace=wrap;html=1;startSize=23;" vertex="1" parent="1">
          <mxGeometry x="270" y="890" width="200" height="200" as="geometry" />
        </mxCell>
        <mxCell id="RIugXOhGWjYm2-fqEb5S-45" value="" style="shape=image;html=1;verticalAlign=top;verticalLabelPosition=bottom;labelBackgroundColor=#ffffff;imageAspect=0;aspect=fixed;image=https://cdn2.iconfinder.com/data/icons/office-icon-set-3/128/users.png" vertex="1" parent="RIugXOhGWjYm2-fqEb5S-44">
          <mxGeometry x="40" y="70" width="50" height="50" as="geometry" />
        </mxCell>
        <mxCell id="RIugXOhGWjYm2-fqEb5S-46" value="Testlet" style="whiteSpace=wrap;html=1;fillColor=#dae8fc;strokeColor=#6c8ebf;" vertex="1" parent="RIugXOhGWjYm2-fqEb5S-44">
          <mxGeometry x="90" y="130" width="86" height="40" as="geometry" />
        </mxCell>
        <mxCell id="RIugXOhGWjYm2-fqEb5S-47" value="" style="html=1;verticalLabelPosition=bottom;align=center;labelBackgroundColor=#ffffff;verticalAlign=top;strokeWidth=2;strokeColor=#0080F0;shadow=0;dashed=0;shape=mxgraph.ios7.icons.data;" vertex="1" parent="RIugXOhGWjYm2-fqEb5S-44">
          <mxGeometry y="120" width="75" height="80" as="geometry" />
        </mxCell>
      </root>
    </mxGraphModel>
  </diagram>
</mxfile>
